<svg viewBox="0 0 53.763 53.763" xml:space="preserve" xmlns="http://www.w3.org/2000/svg"><circle cx="26.881" cy="26.969" r="26.881" fill="#000000" class="fill-000000"></circle><path fill="#0576f7" d="M14.102 16.25H39.75l-2.417 25.542-10.407 2.914-10.509-3.039z" class="fill-ffffff"></path><path d="m19.289 24.584-.351-3.125h15.979l-.334 3.083-7.822 3.475 7.5-.048-.771 9.407-6.556 1.833-6.547-1.917-.334-4.833 3.125-.042.166 2.542 3.636 1.083 3.656-1.041.5-4.042-11.083-.042-.394-3.032 7.769-3.244z" fill="#000000" class="fill-000000"></path><path fill="#0576f7" d="M22.814 11.225V9.517h-4.041v4.65h4.041v-1.709h-2.333v-1.233zM28.138 9.517h-3.875v1.708l1.437 1.233h-1.437v1.709h3.875v-1.709l-1.479-1.233h1.479zM33.46 9.517h-3.875v1.708l1.437 1.233h-1.437v1.709h3.875v-1.709l-1.479-1.233h1.479z" class="fill-ffffff"></path></svg>