<svg viewBox="0 0 53.763 53.763" xml:space="preserve" xmlns="http://www.w3.org/2000/svg"><circle cx="26.881" cy="26.969" r="26.881" fill="#000000" class="fill-000000"></circle><path fill="#ff8c00" d="M14.102 16.25H39.75l-2.417 25.542-10.407 2.914-10.509-3.039zM26.483 9.318h-4.506v1.709h1.399v3.14h1.708v-3.14h1.399zM19.521 9.318v1.57h-1.167v-1.57h-1.708v4.849h1.708v-1.57h1.167v1.57h1.708V9.318zM35.146 12.458v-3.14h-1.708v4.849h4.505v-1.709zM30.981 9.318l-1.105 1.57-.937-1.57h-1.708v4.849h1.708v-2l.937 1.145 1.105-1.395v2.25h1.708V9.318z" class="fill-ffffff"></path><path d="m34.917 21.459-.334 3.083h-12.25l.292 3.125 11.583.302-.77 9.407-6.557 1.833-6.548-1.917L20 32.459l3.125-.042.167 2.542 3.635 1.083 3.656-1.041.5-4.042L20 30.917l-1.062-9.458z" fill="#000000" class="fill-000000"></path></svg>