<svg aria-labelledby="simpleicons-sass-icon" viewBox="0 0 3333 3333" xml:space="preserve" xmlns="http://www.w3.org/2000/svg" shape-rendering="geometricPrecision" text-rendering="geometricPrecision" image-rendering="optimizeQuality" fill-rule="evenodd" clip-rule="evenodd"><circle cx="1667" cy="1667" r="1667" fill="#000000" class="fill-000000"></circle><path d="M2308 1082c-47-181-348-241-632-140-170 61-353 155-485 279-157 146-182 274-172 327 37 188 295 312 401 403-31 16-260 131-314 249-57 126 9 215 52 226 134 38 272-30 346-140 72-107 66-245 35-313 42-11 92-17 156-9 179 21 214 133 207 179-8 46-45 73-58 80-13 8-16 11-15 16 1 7 8 7 18 6 14-2 93-38 97-125 4-110-101-232-288-230-76 1-125 8-159 22-3-4-5-7-9-9-115-124-328-211-319-376 2-60 24-218 408-409 316-158 567-114 611-18 62 136-134 390-463 427-125 14-190-34-207-52-17-19-20-20-26-16-11 5-4 21 0 31 10 26 50 71 119 94 59 19 206 30 383-39 198-76 352-290 307-468l7 5zm-844 925c15 55 13 106-2 153l-6 15-6 15c-12 25-28 48-48 69-59 65-142 89-178 69-38-23-19-114 50-187 74-78 181-128 181-128v-1l9-5z" fill="#fa8484" class="fill-ffffff"></path></svg>